<?xml version="1.0" encoding="utf-8" ?>
<svg xmlns="http://www.w3.org/2000/svg" width="1024" height="1024">
    <path transform="scale(2 2)"
        d="M103.253 224.757C98.1558 218.583 97.7428 214.612 97.7384 207.104L97.7413 176.666C97.7442 172.705 97.4401 168.444 98.1637 164.545C99.0448 159.797 101.995 158.168 103.557 154.488C104.522 152.214 104.936 149.607 105.748 147.259C109.873 135.323 117.319 109.977 123.41 101.913C133.728 88.2524 146.405 88.2386 161.655 88.2417L352.516 88.2304C369.318 88.1762 382.391 88.9083 391.801 106.175C399.308 119.949 401.549 137.912 407.235 152.313C409.324 157.602 413.7 158.52 414.518 165.699C415.277 172.363 414.774 181.575 414.774 188.514L414.768 203.391C414.761 212.918 414.862 216.968 408.712 224.757C411.282 227.567 413.327 230.851 414.304 234.56C415.224 238.052 415.093 279.882 414.21 283.675C413.263 287.747 410.797 290.778 408.712 294.294C410.079 296.87 412.331 298.814 413.513 301.543C416.305 307.984 414.731 320.768 414.752 327.833L414.793 341.553C414.822 353.19 413.55 362.816 400.836 368.09C400.337 374.78 395.982 379.621 390.719 383.22C412.407 383.947 406.09 373.937 421.543 364.788C433.155 357.913 443.077 371.251 442.5 349.498C437.269 346.818 432.911 343.75 431.041 337.905C423.301 313.713 459.442 302.95 466.618 326.211C469.638 336 464.612 344.943 455.999 349.498C455.897 357.627 456.175 364.24 449.925 370.32C441.131 378.877 433.998 373.287 428.093 376.49C421.528 380.05 417.009 389.659 409.441 393.671C402.05 397.589 392.73 396.277 384.704 396.27L351.803 396.249C346.454 396.246 340.872 395.914 335.549 396.261C333.153 396.65 326.4 396.498 323.635 396.521C314 396.6 294.206 395.039 285.21 396.952C285.496 397.842 286.472 398.526 286.275 399.566C284.342 409.765 259.887 408.037 251.895 410.252C238.875 410.682 225.627 410.419 212.601 410.252C208.832 409.507 179.471 408.705 177.869 401.912C177.142 398.835 180.259 398.782 181.376 396.881C178.176 396.279 157.742 396.732 157.073 396.261L125.25 396.281C114.324 396.29 107.254 397.872 98.6248 389.949C93.9236 385.632 89.8787 379.044 83.8387 376.533C76.7078 373.57 70.0908 378.5 62.3862 370.765C56.4249 364.781 56.72 357.346 56.7614 349.498C41.7503 342.215 39.3682 323.304 54.3928 315.3C75.4476 304.084 94.816 337.303 69.7466 349.498C69.6967 352.713 69.6867 355.919 69.7466 359.133C72.6747 364.216 77.5246 362.453 82.5449 362.999C97.3112 364.605 101.809 377.138 111.837 383.22C117.123 383.387 122.434 383.1 127.727 383.22L128.47 382.945C126.141 379.432 121.612 380.335 117.304 369.455C94.6102 367.498 97.75 345.094 97.7647 329.406C97.7767 316.664 94.5909 303.487 104.735 294.294C94.6691 284.885 97.7365 271.423 97.7356 258.54C97.7346 244.697 95.0074 236.184 103.253 224.757ZM132.269 288.485L384.921 288.507C404.942 288.574 401.796 282.378 401.757 265.892L401.785 241.345C401.725 234.507 398.242 231.148 391.392 231.397C380.516 231.793 369.637 231.67 358.753 231.668C358.028 251.621 338.259 260.525 326.047 247.016C321.941 242.474 321.542 237.533 321.38 231.668L123.929 231.662C111.953 231.669 110.7 232.149 110.735 245.546L110.782 258.665C110.874 281.725 104.647 288.475 132.269 288.485ZM345.457 230.312C347.246 217.974 357.057 218.445 367.115 218.466L386.212 218.526C399.842 218.591 401.748 217.473 401.758 202.686L401.746 174.584C401.725 159.841 396.364 160.855 381.833 159.322C371.511 158.232 365.906 165.247 352.48 165.183C352.397 171.567 352.213 177.276 347.324 182.001C339.582 189.483 327.331 188.389 320.225 180.647C314.933 174.881 315.454 167.945 315.486 160.659C303.041 153.408 291.887 172.287 271.626 164.941C258.558 160.203 256.835 154.004 242.154 162.478C218.676 176.029 206.497 155.152 193.632 159.256C181.02 159.353 173.128 173.674 151.9 163.683C138.284 157.275 138.359 158.968 123.729 161.113C118.77 161.84 112.431 161.401 111.248 167.644C109.882 174.849 110.344 201.361 110.809 209.671C111.508 222.137 126.59 218.496 135.884 218.495L308.524 218.483C317.895 218.477 330.735 216.575 333.524 228.707C334.396 232.498 333.565 240.472 339.508 240.091C345.64 239.697 345.433 235.276 345.457 230.312ZM140.297 348.193C167.799 339.109 152.695 306.917 135.017 311.588C112.011 314.568 114.235 349.466 140.297 348.193Z" />
    <path fill="#BCBBBB" transform="scale(2 2)"
        d="M262.503 369.455L376.423 369.468C384.597 369.471 392.814 369.891 400.836 368.09C400.337 374.78 395.982 379.621 390.719 383.22C386.479 383.591 381.894 383.239 377.628 383.235L262.503 383.22L262.503 369.455Z" />
    <path fill="#BCBBBB" transform="scale(2 2)"
        d="M117.304 369.455L249.335 369.455L249.335 383.22L127.727 383.22L128.47 382.945C126.141 379.432 121.612 380.335 117.304 369.455Z" />
    <path fill="#FEFEFE" transform="scale(2 2)"
        d="M157.073 396.261L316.328 396.259C322.699 396.258 329.189 395.99 335.549 396.261C333.153 396.65 326.4 396.498 323.635 396.521C314 396.6 294.206 395.039 285.21 396.952C285.496 397.842 286.472 398.526 286.275 399.566C284.342 409.765 259.887 408.037 251.895 410.252C238.875 410.682 225.627 410.419 212.601 410.252C208.832 409.507 179.471 408.705 177.869 401.912C177.142 398.835 180.259 398.782 181.376 396.881C178.176 396.279 157.742 396.732 157.073 396.261Z" />
    <path fill="#6F4F3A" transform="scale(2 2)"
        d="M358.753 231.668C369.637 231.67 380.516 231.793 391.392 231.397C398.242 231.148 401.725 234.507 401.785 241.345L401.757 265.892C401.796 282.378 404.942 288.574 384.921 288.507L132.269 288.485C104.647 288.475 110.874 281.725 110.782 258.665L110.735 245.546C110.7 232.149 111.953 231.669 123.929 231.662L321.38 231.668C321.542 237.533 321.941 242.474 326.047 247.016C338.259 260.525 358.028 251.621 358.753 231.668ZM138.551 265.91C144.535 262.269 142.39 255.021 135.017 255.585C129.236 259.169 130.798 267.96 138.551 265.91ZM311.491 265.91C317.863 264.298 318.711 256.095 311.491 255.585C304.568 256.465 304.471 264.703 311.491 265.91Z" />
    <path transform="scale(2 2)"
        d="M373.605 242.56C396.679 238.413 402.935 274.354 377.708 279.232C353.075 281.223 350.126 245.632 373.605 242.56Z" />
    <path fill="#FEFEFE" transform="scale(2 2)"
        d="M374.17 255.585C381.778 255.113 383.462 264.283 376.873 265.91C369.974 266.216 367.283 257.958 374.17 255.585Z" />
    <path transform="scale(2 2)"
        d="M133.772 242.56C157.52 239.963 163.211 273.753 140.297 279.232C113.043 280.7 111.372 246.867 133.772 242.56ZM138.551 265.91C144.535 262.269 142.39 255.021 135.017 255.585C129.236 259.169 130.798 267.96 138.551 265.91Z" />
    <path transform="scale(2 2)"
        d="M198.381 241.572C218.085 240.142 230.263 267.6 203.336 278.496C177.942 279.952 175.411 245.123 198.381 241.572Z" />
    <path fill="#FEFEFE" transform="scale(2 2)"
        d="M199.823 254.516C203.614 254.382 205.066 256.491 205.828 260.003C205.217 262.433 204.137 264.2 201.6 264.992C193.909 265.376 193.202 257.115 199.823 254.516Z" />
    <path transform="scale(2 2)"
        d="M309.676 242.56C332.732 240.617 337.409 274.626 314.313 278.496C290.236 281.355 285.078 246.713 309.676 242.56ZM311.491 265.91C317.863 264.298 318.711 256.095 311.491 255.585C304.568 256.465 304.471 264.703 311.491 265.91Z" />
    <path fill="#6F4F3A" transform="scale(2 2)"
        d="M193.632 159.256C206.497 155.152 218.676 176.029 242.154 162.478C256.835 154.004 258.558 160.203 271.626 164.941C291.887 172.287 303.041 153.408 315.486 160.659C315.454 167.945 314.933 174.881 320.225 180.647C327.331 188.389 339.582 189.483 347.324 182.001C352.213 177.276 352.397 171.567 352.48 165.183C365.906 165.247 371.511 158.232 381.833 159.322C396.364 160.855 401.725 159.841 401.746 174.584L401.758 202.686C401.748 217.473 399.842 218.591 386.212 218.526L367.115 218.466C357.057 218.445 347.246 217.974 345.457 230.312C345.433 235.276 345.64 239.697 339.508 240.091C333.565 240.472 334.396 232.498 333.524 228.707C330.735 216.575 317.895 218.477 308.524 218.483L135.884 218.495C126.59 218.496 111.508 222.137 110.809 209.671C110.344 201.361 109.882 174.849 111.248 167.644C112.431 161.401 118.77 161.84 123.729 161.113C138.359 158.968 138.284 157.275 151.9 163.683C173.128 173.674 181.02 159.353 193.632 159.256ZM201.6 196.218C207.811 194.043 207.267 184.947 199.823 185.76C193.522 187.754 194.853 196.456 201.6 196.218ZM137.866 209.033C162.97 206.675 158.403 169.902 136.572 172.6C112.688 175.189 113.439 207.955 137.866 209.033Z" />
    <path transform="scale(2 2)"
        d="M374.17 172.6C398.775 172.74 400.36 205.741 377.708 209.033C355.175 211.863 347.286 177.675 374.17 172.6Z" />
    <path fill="#FEFEFE" transform="scale(2 2)"
        d="M374.17 185.76C381.542 185.402 383.199 193.328 376.873 196.218C369.572 196.888 367.93 188.44 374.17 185.76Z" />
    <path transform="scale(2 2)"
        d="M199.823 172.6C223.802 172.095 225.29 205.851 202.427 209.033C178.63 209.657 175.035 174.905 199.823 172.6ZM201.6 196.218C207.811 194.043 207.267 184.947 199.823 185.76C193.522 187.754 194.853 196.456 201.6 196.218Z" />
    <path transform="scale(2 2)"
        d="M136.572 172.6C158.403 169.902 162.97 206.675 137.866 209.033C113.439 207.955 112.688 175.189 136.572 172.6ZM132.269 192.968C133.915 195.54 135.607 196.39 138.551 196.218C144.151 192.875 143.276 184.918 135.705 185.76C134.057 186.621 133.279 187.489 132.269 189.034C132.262 190.343 132.223 191.66 132.269 192.968Z" />
    <path transform="scale(2 2)"
        d="M306.803 190.29C318.535 189.432 321.748 204.14 309.676 209.033C297.106 210.228 294.151 193.092 306.803 190.29Z" />
    <path fill="#6F4F3A" transform="scale(2 2)"
        d="M119.795 301.982L383.478 301.972C390.001 301.964 400.553 299.837 401.644 308.823C402.251 313.826 401.721 320.261 401.732 325.441L401.763 340.298C401.775 347.375 402.526 355.645 392.929 356.441L129.673 356.46C121.274 356.463 111.227 358.569 110.795 346.902C110.531 339.776 110.81 332.579 110.783 325.441C110.749 316.514 107.307 302.08 119.795 301.982ZM140.297 348.193C167.799 339.109 152.695 306.917 135.017 311.588C112.011 314.568 114.235 349.466 140.297 348.193Z" />
    <path transform="scale(2 2)"
        d="M374.17 311.588C394.657 308.567 403.974 343.963 377.708 348.193C353.806 350.432 349.188 314.582 374.17 311.588Z" />
    <path fill="#FEFEFE" transform="scale(2 2)"
        d="M374.17 324.764C381.575 324.33 382.977 332.348 376.873 335.263C370.07 335.322 368.042 327.583 374.17 324.764Z" />
    <path transform="scale(2 2)"
        d="M135.017 311.588C152.695 306.917 167.799 339.109 140.297 348.193C114.235 349.466 112.011 314.568 135.017 311.588ZM132.269 331.43C133.823 334.006 135.628 335.104 138.551 335.263C144.076 331.637 143.657 323.644 136.572 324.764C132.563 325.314 132.08 327.774 132.269 331.43Z" />
    <path transform="scale(2 2)"
        d="M309.676 311.588C334.716 311.956 336.361 343.966 314.313 348.193C292.597 351.515 282.987 317.659 309.676 311.588Z" />
    <path fill="#FEFEFE" transform="scale(2 2)"
        d="M310.582 324.764C317.819 324.373 319.047 333.165 312.504 335.263C305.194 335.459 304.532 327.36 310.582 324.764Z" />
    <path transform="scale(2 2)"
        d="M199.823 311.588C203.19 310.735 208.151 312.882 210.888 314.736C225.341 324.525 218.971 345.253 202.427 348.193C178.662 350.085 174.642 314.374 199.823 311.588Z" />
    <path fill="#FEFEFE" transform="scale(2 2)"
        d="M199.823 324.764C207.063 324.1 207.745 333.019 201.6 335.263C194.523 335.625 193.256 326.695 199.823 324.764Z" />
    <path fill="#6F4F3A" transform="scale(2 2)"
        d="M154.488 101.432L337.483 101.43C344.527 101.429 364.115 100.599 369.746 102.567C384.628 107.769 386.446 134.619 392.929 148.258C384.908 147.12 376.449 144.465 368.533 147.543C362.082 150.05 362.114 152.008 354.184 152.236C352.178 149.331 350.359 147.625 346.908 146.631C335.377 149.376 340.852 162.66 339.736 171.087C337.245 174.053 334.082 175.926 330.748 172.999C326.882 169.605 328.752 163.893 328.278 159.364C326.874 145.94 308.315 143.602 298.158 147.465C290.883 150.231 289.408 153.705 280.508 153.146C271.062 152.553 268.562 145.801 253.681 145.987C247.474 146.065 243.411 147.079 237.973 149.94C216.811 161.071 209.189 138.553 184.032 147.488C176.452 150.18 174.911 153.116 165.891 153.109C156.211 153.101 153.002 148.187 144.911 146.632C136.208 144.959 128.615 147.504 120.139 148.23L119.795 148.258C121.087 141.122 128.565 119.38 131.551 113.436C136.023 104.535 144.932 101.349 154.488 101.432Z" />
    <path transform="scale(2 2)"
        d="M330.423 112.792C339.816 111.209 345.744 118.512 340.188 124.344C337.533 127.13 333.925 126.787 330.423 126.784C327.127 126.914 323.324 127.412 320.79 124.834C313.837 117.759 321.083 111.992 330.423 112.792Z" />
    <path transform="scale(2 2)"
        d="M268.441 112.792C272.258 112.788 277.639 112.002 280.926 114.317C286.848 118.487 282.626 126.334 275.813 126.784C271.776 126.766 265.998 127.775 262.586 125.207C256.744 120.809 260.574 113.453 268.441 112.792Z" />
    <path transform="scale(2 2)"
        d="M166.148 116.135C169.625 115.893 177.671 115.528 180.458 117.447C185.888 121.186 182.741 128.762 176.907 129.616C173.13 129.764 164.612 130.394 161.695 127.999C156.82 123.996 159.891 116.481 166.148 116.135Z" />
    <path transform="scale(2 2)"
        d="M218.075 107.697C221.479 107.681 229.379 107.126 232.188 108.055C238.792 110.24 236.624 119.005 230.682 121.376C226.893 121.386 220.216 122.148 216.85 120.666C210.251 117.76 212.184 109.856 218.075 107.697Z" />
    <path fill="#998C85" transform="scale(2 2)"
        d="M448.57 326.313C456.295 326.998 455.972 335.429 449.381 337.462C441.825 337.336 441.552 327.722 448.57 326.313Z" />
    <path fill="#998C85" transform="scale(2 2)"
        d="M62.4024 326.313C70.0404 326.414 70.1689 334.891 63.9439 337.462C57.1848 336.959 54.6021 328.192 62.4024 326.313Z" />
    <path transform="scale(2 2)"
        d="M251.895 410.252C255.719 410.452 259.65 410.263 263.489 410.259L411.695 410.286C440.019 410.385 420.774 390.695 435.726 389.584C448.26 388.653 443.389 421.579 419.958 423.034C414.16 423.394 408.151 422.801 402.331 422.759L106.51 422.752C96.6296 422.756 86.1733 424.591 78.127 417.419C71.0002 411.066 65.1849 389.175 77.002 389.559C86.2396 389.859 81.0633 401.866 86.8572 407.607C91.2638 411.974 100.727 410.295 106.293 410.263L212.601 410.252C225.627 410.419 238.875 410.682 251.895 410.252Z" />
</svg>
